<?xml version="1.0" encoding="UTF-8"?>
<svg version="1.1" viewBox="0 0 2048 2048" width="1280" height="1280" xmlns="http://www.w3.org/2000/svg">
<path transform="translate(1e3)" d="m0 0h49l1 2 14 7 22 22 7 12 4 7 36 60 7 10 8 13 3 6 6 9 6 11 6 9 5 10v2h2l5 7v4h13l4 3 3-1 2-4 8-6 5-3 11-9 7-4 5-4 5-3 11-9 5-3 10-8 18-12 10-8 6-4 11-9 5-3 11-9 7-4 5-4 12-6 8-6 11-1 2-2 5-1h27l19 9 10 6 9 9 6 10 8 17 1 4v13h2l1 2 1 16v6l3 1 1 19v8l3 1 1 11v16l3 1 1 14v9l3 1 1 27 3 1 1 23 3 1 1 14 2 6 2 2 8 3v2l6-2 4-2 11-1 5-3 11-1 2-2 18-2 5-3 11-1 2-2 14-2 2-2 14-2 5-3 11-1 2-2 14-2 2-2 13-2 3-2 14-2 2-2 6-1h42l16 8 6 4 16 16 7 12 3 6 1 5v34l-1 11-2 3-2 13-2 3-2 13-2 3-2 13-2 3-2 14-2 2-2 13-2 3-2 13-2 3-2 13-2 3-2 13-2 2-1 14-3 7-2 13-3 5 3 5 3 7 10 6 24 1 3 1 1 2 19 1 5 2v2l3-1 20 1 4 1 1 2 20 1 4 2v2h24l4 2v2h20l4 2v2h20l5 3 9 2 18 10 17 17 6 10 4 9 1 8v23l-1 10-2 2-2 10-5 9-3 4h-2l-2 7-4 5-5 5-5 8-8 9-3 6-5 6-3 6-5 5-4 5-3 6-9 10-3 6-9 10-3 6-7 7-5 9-6 8-3 5-7 7-5 10-1 13 1 3 6 3 8 6 12 6 9 6 12 7 13 8 10 6 10 7 14 8 9 6 16 9 7 5 12 6 6 5 14 7 22 22 6 10 3 6 1 1v48h-2l-2 7-7 11-20 20-17 9-9 6-11 6-9 6-11 6-9 6-12 7-15 10-17 10-13 8-7 4-13 8-7 4-10 7v11l-3 3v2l5 5 5 6 10 16v2h2l8 10 6 9 6 7 6 9 7 9 1 4h2l7 11 9 11 6 9 6 7 2 6h2l9 12 1 4h2l6 10v2h2l5 8 4 10v5h2l1 2 1 11-1 23-2 2-2 10-3 5-6 11-7 8-6 5-18 8-12 4-11 2-4 2-20 2-6 2-22 2-4 2-15 1-9 1-6 2-18 2-6 2-22 2-3 2-12 1-9 1-7 2-14 2-3 5-2 5-2 4v3h2l1 2 2 14 2 2 2 18 2 2 2 14 2 3 2 13 2 3 2 13 2 3 1 13h2l2 10v6h2l2 10v6h2l2 11v5h2l2 12v4h2l1 2 1 26-1 20-2 2-2 10-7 11-17 17-18 9h-44l-22-5-71-18-61-14-24-6-1 3-7 3-3 4-3 7-1 10-1 11-2 2-2 26-2 2-2 22-1 2h-2v16l-1 10-1 2h-2v14l-2 10h-2v16l-1 10-1 2h-2v15l-1 7-2 2-2 10-3 5-7 13-18 18-18 9h-42l-1-3-10-1-6-6-7-3-10-6-7-7-7-3-9-9-7-3-5-5-8-4-8-8-8-4-8-8-8-4-8-8-8-4-8-8-7-3-5-5-8-4-8-8-7-3-4-2h-15l-1 6-6 6-4 9-6 10h-2l-2 7-6 10-4 5-7 14-6 8-3 5-5 7-6 12-5 6-7 14-5 6-7 14-5 6-7 14-22 22-16 8-1 2h-49l-3-3-13-7-20-20v-2h-2l-9-17-6-9-6-11-6-9-6-11-6-9-6-11-6-9-7-10-7-13-4-5-8-15-4-5-8-15-1-3h-2l-3-7h-12l-3-3-4 2-7 7-8 4-6 5-6 3-10 9-6 3-10 9-7 4-9 8-6 3-6 5-7 4-9 8-6 3-7 7-9 5-7 7-9 5-9 6-11 6-5 5-5 1-9 1-2 2h-35v-2l-7-2-18-10-10-10-13-26-1-3-1-13-3-7-1-17-3-7-1-21-3-7-1-21-3-7-1-17-3-7-1-21-3-7-1-17-3-6v-12l-3-5-2-2-7-3-4-1-4 3-14 2-6 2-14 2-5 2-11 2-6 2-10 2-5 2-11 2-5 2-11 2-5 2-11 2-5 2-11 2-5 2-11 2-3 2-13 2-6 2-34 1-13-1-4-3-11-6-8-7-12-12-9-17-1-3v-45l3-4 2-14 2-3 2-12 2-4 2-12 2-4 2-12 2-4 2-12 2-4 2-12 2-4 2-12 2-4 2-16 2-4 2-12 2-4 2-14 3-1-2-7-4-8-3-3-8-3-27-3-3-1-21-3-20-3-32-5-12-2-16-3-23-3-4-1-19-2-3-2-10-3-14-7-10-9-11-11-8-16-2-5v-36l3-5 2-8 5-10 6-8 3-5 8-9 3-6 9-10 3-6 6-8 3-5 8-9 3-6 9-10 3-6 9-10 3-6 9-10 3-6 6-8 3-5 8-9 4-8 1-13-1-4-7-3-5-4-14-7-5-5-7-3-8-4-5-5-7-3-9-5-4-4-7-3-5-5-7-3-8-4-5-5-7-3-8-4-5-5-7-3-8-4-5-5-7-3-10-6-21-21-7-14v-2h-2v-48l3-5 6-11 9-10h2l1-3 8-7 6-5 12-6 9-6 12-7 13-8 10-6 17-10 7-5 7-4 9-6 9-5 13-8 10-6 19-11 8-5 1-11 2-4h2l-7-8-4-5-2-6h-2l-7-11-9-11-6-9-6-7-4-6-8-10-12-18-8-10-6-9-6-7-6-9-6-7-2-6h-2l-6-10v-2h-2l-6-10-3-7-2-7-2-5v-25l2-7 3-9 8-17 5-6 10-8 16-8 8-2 6-2 9-1 2-2 6-1 16-1 2-2 6-1 20-1 2-2 6-1 20-1 2-2 6-1 16-1 2-2 6-1 20-1 2-2 6-1 18-1v-2l18-2 4-4 4-8v-5l-2-2-2-13-3-7-1-13-3-7-1-9-2-3-2-13-2-3-2-13-2-3-2-13-2-3-2-13-2-3-2-13-2-3-2-13-2-3-2-13-2-3-1-5v-43l8-15 3-5 14-14 7-6 17-8h43l6 2 1 1 13 2 5 2 11 2 5 2 11 2 5 2 12 2 4 2 12 2 4 2 12 2 4 2 12 2 4 2 12 1 5 3 12 1 3 1 1 2 12 1 5 3 6-1 7-3 4-5 3-7 1-16 2-6 1-2 1-20 2-6 1-2 1-16 2-6 1-2 1-20 2-6 1-2 1-16 2-6 1-2 1-20 2-6 1-2 1-16 2-7 3-9 8-17 8-8 5-6 10-8 17-8h36l5 2 7 2 5 3 5 4 14 7 10 9 8 5 10 8 18 12 10 8 6 4 10 8 6 4 8 7 6 3 10 9 6 3 4 3v2l7 2 9 9 8 4 1 1h17l3-6 6-8 6-12 6-8 6-12 6-8 6-12 6-8 3-5 5-7 6-12 6-8 6-12 6-8 6-12 5-6 7-14 24-24 14-7z"/>
<path transform="translate(1051,2047)" d="m0 0"/>
<path transform="translate(2047,1049)" d="m0 0"/>
</svg>
